<?xml version="1.0" encoding="UTF-8"?>
<svg id="Layer_2" data-name="Layer 2" xmlns="http://www.w3.org/2000/svg" viewBox="0 0 487.62 106.89">
  <defs>
    <style>
      .cls-1 {
        letter-spacing: 0em;
      }

      .cls-2 {
        letter-spacing: 0em;
      }

      .cls-3 {
        font-family: Calibri-Bold, Calibri;
        font-size: 10.98px;
        font-weight: 700;
      }

      .cls-4 {
        font-family: CourierNewPSMT, 'Courier New';
        font-size: 10.02px;
      }

      .cls-5 {
        fill: #e6e6e6;
      }

      .cls-6 {
        letter-spacing: 0em;
      }

      .cls-7 {
        letter-spacing: 0em;
      }

      .cls-8 {
        letter-spacing: 0em;
      }

      .cls-9 {
        letter-spacing: 0em;
      }

      .cls-10 {
        letter-spacing: 0em;
      }

      .cls-11 {
        letter-spacing: 0em;
      }

      .cls-12 {
        letter-spacing: 0em;
      }

      .cls-13 {
        letter-spacing: 0em;
      }

      .cls-14 {
        letter-spacing: 0em;
      }

      .cls-15 {
        letter-spacing: 0em;
      }

      .cls-16 {
        letter-spacing: 0em;
      }

      .cls-17 {
        letter-spacing: 0em;
      }
    </style>
  </defs>
  <g id="Layer_1-2" data-name="Layer 1">
    <rect class="cls-5" x=".48" y=".54" width="54" height="14.16"/>
    <rect class="cls-5" x="5.64" y="1.26" width="43.68" height="13.44"/>
    <rect class="cls-5" x="54.96" y=".54" width="71.88" height="14.16"/>
    <rect class="cls-5" x="60.12" y="1.26" width="61.56" height="13.44"/>
    <text class="cls-3" transform="translate(5.64 11.7)"><tspan x="0" y="0">o</tspan><tspan class="cls-10" x="5.9" y="0">w</tspan><tspan x="14.12" y="0">n</tspan><tspan class="cls-6" x="20.01" y="0">er_</tspan><tspan class="cls-14" x="34.88" y="0">i</tspan><tspan class="cls-12" x="37.64" y="0">d</tspan><tspan class="cls-13" x="43.57" y="0"> </tspan></text>
    <rect class="cls-5" x="127.32" y=".54" width="83.4" height="14.16"/>
    <rect class="cls-5" x="132.48" y="1.26" width="73.08" height="13.44"/>
    <text class="cls-3" transform="translate(60.12 11.7)"><tspan x="0" y="0">owner</tspan><tspan class="cls-12" x="29.41" y="0">_</tspan><tspan x="34.92" y="0">na</tspan><tspan class="cls-15" x="46.23" y="0">m</tspan><tspan class="cls-12" x="55.22" y="0">e</tspan><tspan x="60.79" y="0"> </tspan></text>
    <rect class="cls-5" x="211.2" y=".54" width="63.3" height="14.16"/>
    <text class="cls-3" transform="translate(132.48 11.7)"><tspan x="0" y="0">add</tspan><tspan class="cls-12" x="17.2" y="0">r</tspan><tspan class="cls-6" x="21.15" y="0">e</tspan><tspan x="26.67" y="0">s</tspan><tspan class="cls-15" x="31.05" y="0">s</tspan><tspan class="cls-13" x="35.48" y="0"> </tspan></text>
    <rect class="cls-5" x="216.36" y="1.26" width="52.98" height="13.44"/>
    <rect class="cls-5" x="274.98" y=".54" width="84.6" height="14.16"/>
    <text class="cls-3" transform="translate(216.36 11.7)"><tspan x="0" y="0">dog</tspan><tspan class="cls-8" x="17" y="0">_</tspan><tspan x="22.51" y="0">nam</tspan><tspan class="cls-12" x="42.76" y="0">e</tspan><tspan x="48.33" y="0"> </tspan></text>
    <rect class="cls-5" x="280.14" y="1.26" width="74.28" height="13.44"/>
    <text class="cls-3" transform="translate(280.14 11.7)"><tspan x="0" y="0">b</tspan><tspan class="cls-6" x="5.89" y="0">ree</tspan><tspan class="cls-12" x="20.82" y="0">d</tspan><tspan x="26.75" y="0"> </tspan></text>
    <rect class="cls-5" x="360.06" y=".54" width="70.32" height="14.16"/>
    <rect class="cls-5" x="365.22" y="1.26" width="60" height="13.44"/>
    <text class="cls-3" transform="translate(365.22 11.7)"><tspan class="cls-7" x="0" y="0">do</tspan><tspan class="cls-12" x="11.77" y="0">b</tspan><tspan x="17.71" y="0"> </tspan></text>
    <rect class="cls-5" x="430.92" y=".54" width="56.16" height="14.16"/>
    <rect class="cls-5" x="436.02" y="1.26" width="45.9" height="13.44"/>
    <text class="cls-3" transform="translate(436.02 11.7)"><tspan x="0" y="0">m</tspan><tspan class="cls-16" x="8.93" y="0">i</tspan><tspan x="11.64" y="0">cr</tspan><tspan class="cls-17" x="20.14" y="0">o</tspan><tspan x="26.05" y="0">c</tspan><tspan class="cls-17" x="30.65" y="0">hip</tspan><tspan class="cls-1" x="45.16" y="0"> </tspan></text>
    <rect width=".48" height=".48"/>
    <rect width="487.62" height=".48"/>
    <rect x="487.14" width=".48" height=".48"/>
    <rect y=".48" width=".48" height="14.22"/>
    <rect x="54.48" y=".48" width=".48" height="14.22"/>
    <rect x="126.84" y=".48" width=".48" height="14.22"/>
    <rect x="210.72" y=".48" width=".48" height="14.22"/>
    <rect x="274.5" y=".48" width=".48" height="14.22"/>
    <rect x="359.58" y=".48" width=".48" height="14.22"/>
    <rect x="430.44" y=".48" width=".48" height="14.22"/>
    <rect x="487.14" y=".48" width=".48" height="14.22"/>
    <text class="cls-4" transform="translate(5.64 26.58)"><tspan class="cls-9" x="0" y="0">1</tspan><tspan x="6" y="0"> </tspan></text>
    <text class="cls-4" transform="translate(60.12 26.58)"><tspan class="cls-9" x="0" y="0">Joe Murphy</tspan><tspan x="60.03" y="0"> </tspan></text>
    <text class="cls-4" transform="translate(132.46 26.58)"><tspan class="cls-9" x="0" y="0">1 main st.</tspan><tspan x="60.03" y="0"> </tspan></text>
    <text class="cls-4" transform="translate(216.33 26.58)"><tspan class="cls-9" x="0" y="0">rover</tspan><tspan x="30.02" y="0"> </tspan></text>
    <text class="cls-4" transform="translate(280.11 26.58)"><tspan class="cls-11" x="0" y="0">labrador</tspan><tspan x="48.02" y="0"> </tspan></text>
    <text class="cls-4" transform="translate(365.18 26.58)"><tspan class="cls-11" x="0" y="0">22/11/2011</tspan><tspan x="60.03" y="0"> </tspan></text>
    <text class="cls-4" transform="translate(455.89 26.58)"><tspan class="cls-11" x="0" y="0">Y</tspan><tspan x="6" y="0"> </tspan></text>
    <rect y="14.7" width="487.62" height=".48"/>
    <rect y="15.18" width=".48" height="14.22"/>
    <rect x="54.48" y="15.18" width=".48" height="14.22"/>
    <rect x="126.84" y="15.18" width=".48" height="14.22"/>
    <rect x="210.72" y="15.18" width=".48" height="14.22"/>
    <rect x="274.5" y="15.18" width=".48" height="14.22"/>
    <rect x="359.58" y="15.18" width=".48" height="14.22"/>
    <rect x="430.44" y="15.18" width=".48" height="14.22"/>
    <rect x="487.14" y="15.18" width=".48" height="14.22"/>
    <text class="cls-4" transform="translate(5.64 41.28)"><tspan class="cls-9" x="0" y="0">1</tspan><tspan x="6" y="0"> </tspan></text>
    <text class="cls-4" transform="translate(60.12 41.28)"><tspan class="cls-9" x="0" y="0">Joe Murphy</tspan><tspan x="60.03" y="0"> </tspan></text>
    <text class="cls-4" transform="translate(132.46 41.28)"><tspan class="cls-9" x="0" y="0">1 main st.</tspan><tspan x="60.03" y="0"> </tspan></text>
    <text class="cls-4" transform="translate(216.33 41.28)"><tspan class="cls-9" x="0" y="0">fido</tspan><tspan x="24.01" y="0"> </tspan></text>
    <text class="cls-4" transform="translate(280.11 41.28)"><tspan class="cls-11" x="0" y="0">poodle</tspan><tspan x="36.02" y="0"> </tspan></text>
    <text class="cls-4" transform="translate(365.18 41.28)"><tspan class="cls-11" x="0" y="0">02/02/2020</tspan><tspan x="60.03" y="0"> </tspan></text>
    <text class="cls-4" transform="translate(455.89 41.28)"><tspan class="cls-11" x="0" y="0">Y</tspan><tspan x="6" y="0"> </tspan></text>
    <rect y="29.4" width="487.62" height=".48"/>
    <rect y="29.88" width=".48" height="14.22"/>
    <rect x="54.48" y="29.88" width=".48" height="14.22"/>
    <rect x="126.84" y="29.88" width=".48" height="14.22"/>
    <rect x="210.72" y="29.88" width=".48" height="14.22"/>
    <rect x="274.5" y="29.88" width=".48" height="14.22"/>
    <rect x="359.58" y="29.88" width=".48" height="14.22"/>
    <rect x="430.44" y="29.88" width=".48" height="14.22"/>
    <rect x="487.14" y="29.88" width=".48" height="14.22"/>
    <text class="cls-4" transform="translate(5.64 55.98)"><tspan class="cls-9" x="0" y="0">2</tspan><tspan x="6" y="0"> </tspan></text>
    <text class="cls-4" transform="translate(60.12 55.98)"><tspan class="cls-9" x="0" y="0">Ada Traore</tspan><tspan x="60.03" y="0"> </tspan></text>
    <text class="cls-4" transform="translate(132.46 55.98)"><tspan class="cls-9" x="0" y="0">9 park ave.</tspan><tspan x="66.03" y="0"> </tspan></text>
    <text class="cls-4" transform="translate(216.33 55.98)"><tspan class="cls-9" x="0" y="0">fido</tspan><tspan x="24.01" y="0"> </tspan></text>
    <text class="cls-4" transform="translate(280.11 55.98)"><tspan class="cls-11" x="0" y="0">jack russell</tspan><tspan class="cls-2" x="72.04" y="0"> </tspan></text>
    <text class="cls-4" transform="translate(365.18 55.98)"><tspan class="cls-11" x="0" y="0">15/06/2015</tspan><tspan x="60.03" y="0"> </tspan></text>
    <text class="cls-4" transform="translate(455.89 55.98)"><tspan class="cls-11" x="0" y="0">N</tspan><tspan x="6" y="0"> </tspan></text>
    <rect y="44.1" width="487.62" height=".48"/>
    <rect y="44.58" width=".48" height="14.22"/>
    <rect x="54.48" y="44.58" width=".48" height="14.22"/>
    <rect x="126.84" y="44.58" width=".48" height="14.22"/>
    <rect x="210.72" y="44.58" width=".48" height="14.22"/>
    <rect x="274.5" y="44.58" width=".48" height="14.22"/>
    <rect x="359.58" y="44.58" width=".48" height="14.22"/>
    <rect x="430.44" y="44.58" width=".48" height="14.22"/>
    <rect x="487.14" y="44.58" width=".48" height="14.22"/>
    <text class="cls-4" transform="translate(5.64 70.68)"><tspan class="cls-9" x="0" y="0">1</tspan><tspan x="6" y="0"> </tspan></text>
    <text class="cls-4" transform="translate(60.12 70.68)"><tspan class="cls-9" x="0" y="0">Joe Murphy</tspan><tspan x="60.03" y="0"> </tspan></text>
    <text class="cls-4" transform="translate(132.46 70.68)"><tspan class="cls-9" x="0" y="0">1 main st.</tspan><tspan x="60.03" y="0"> </tspan></text>
    <text class="cls-4" transform="translate(216.33 70.68)"><tspan class="cls-9" x="0" y="0">champ</tspan><tspan x="30.02" y="0"> </tspan></text>
    <text class="cls-4" transform="translate(280.11 70.68)"><tspan class="cls-11" x="0" y="0">greyhound</tspan><tspan x="54.03" y="0"> </tspan></text>
    <text class="cls-4" transform="translate(365.18 70.68)"><tspan class="cls-11" x="0" y="0">01/01/2010</tspan><tspan x="60.03" y="0"> </tspan></text>
    <text class="cls-4" transform="translate(455.89 70.68)"><tspan class="cls-11" x="0" y="0">Y</tspan><tspan x="6" y="0"> </tspan></text>
    <rect y="58.8" width="487.62" height=".48"/>
    <rect y="59.28" width=".48" height="14.22"/>
    <rect x="54.48" y="59.28" width=".48" height="14.22"/>
    <rect x="126.84" y="59.28" width=".48" height="14.22"/>
    <rect x="210.72" y="59.28" width=".48" height="14.22"/>
    <rect x="274.5" y="59.28" width=".48" height="14.22"/>
    <rect x="359.58" y="59.28" width=".48" height="14.22"/>
    <rect x="430.44" y="59.28" width=".48" height="14.22"/>
    <rect x="487.14" y="59.28" width=".48" height="14.22"/>
    <text class="cls-4" transform="translate(5.64 85.38)"><tspan class="cls-9" x="0" y="0">2</tspan><tspan x="6" y="0"> </tspan></text>
    <text class="cls-4" transform="translate(60.12 85.38)"><tspan class="cls-9" x="0" y="0">Ada Traore</tspan><tspan x="60.03" y="0"> </tspan></text>
    <text class="cls-4" transform="translate(132.46 85.38)"><tspan class="cls-9" x="0" y="0">9 park ave.</tspan><tspan x="66.03" y="0"> </tspan></text>
    <text class="cls-4" transform="translate(216.33 85.38)"><tspan class="cls-9" x="0" y="0">spots</tspan><tspan x="30.02" y="0"> </tspan></text>
    <text class="cls-4" transform="translate(280.11 85.38)"><tspan class="cls-11" x="0" y="0">dalmation</tspan><tspan x="54.03" y="0"> </tspan></text>
    <text class="cls-4" transform="translate(365.18 85.38)"><tspan class="cls-11" x="0" y="0">24/08/2007</tspan><tspan x="60.03" y="0"> </tspan></text>
    <text class="cls-4" transform="translate(455.89 85.38)"><tspan class="cls-11" x="0" y="0">N</tspan><tspan x="6" y="0"> </tspan></text>
    <rect y="73.5" width="487.62" height=".48"/>
    <rect y="73.98" width=".48" height="14.22"/>
    <rect x="54.48" y="73.98" width=".48" height="14.22"/>
    <rect x="126.84" y="73.98" width=".48" height="14.22"/>
    <rect x="210.72" y="73.98" width=".48" height="14.22"/>
    <rect x="274.5" y="73.98" width=".48" height="14.22"/>
    <rect x="359.58" y="73.98" width=".48" height="14.22"/>
    <rect x="430.44" y="73.98" width=".48" height="14.22"/>
    <rect x="487.14" y="73.98" width=".48" height="14.22"/>
    <text class="cls-4" transform="translate(5.64 100.08)"><tspan class="cls-9" x="0" y="0">3</tspan><tspan x="6" y="0"> </tspan></text>
    <text class="cls-4" transform="translate(60.12 100.08)"><tspan class="cls-9" x="0" y="0">James Tidy</tspan><tspan x="60.03" y="0"> </tspan></text>
    <text class="cls-4" transform="translate(132.46 100.08)"><tspan class="cls-9" x="0" y="0">7 bond st.</tspan><tspan x="60.03" y="0"> </tspan></text>
    <text class="cls-4" transform="translate(216.33 100.08)"><tspan class="cls-9" x="0" y="0">buddy</tspan><tspan x="30.02" y="0"> </tspan></text>
    <text class="cls-4" transform="translate(280.11 100.08)"><tspan class="cls-11" x="0" y="0">rottweiler</tspan><tspan x="60.03" y="0"> </tspan></text>
    <text class="cls-4" transform="translate(365.18 100.08)"><tspan class="cls-11" x="0" y="0">21/10/2012</tspan><tspan x="60.03" y="0"> </tspan></text>
    <text class="cls-4" transform="translate(455.89 100.08)"><tspan class="cls-11" x="0" y="0">Y</tspan><tspan x="6" y="0"> </tspan></text>
    <rect y="88.2" width="487.62" height=".48"/>
    <rect y="88.68" width=".48" height="14.76"/>
    <rect y="102.96" width="54.48" height=".48"/>
    <rect x="54.48" y="88.68" width=".48" height="14.76"/>
    <rect x="54.96" y="102.96" width="71.88" height=".48"/>
    <rect x="126.84" y="88.68" width=".48" height="14.76"/>
    <rect x="127.32" y="102.96" width="83.4" height=".48"/>
    <rect x="210.72" y="88.68" width=".48" height="14.76"/>
    <rect x="211.2" y="102.96" width="63.3" height=".48"/>
    <rect x="274.5" y="88.68" width=".48" height="14.76"/>
    <rect x="274.98" y="102.96" width="84.6" height=".48"/>
    <rect x="359.58" y="88.68" width=".48" height="14.76"/>
    <rect x="360.06" y="102.96" width="70.38" height=".48"/>
    <rect x="430.44" y="88.68" width=".48" height="14.76"/>
    <rect x="430.92" y="102.96" width="56.22" height=".48"/>
    <rect x="487.14" y="88.68" width=".48" height="14.76"/>
    <rect x="487.14" y="102.96" width=".48" height=".48"/>
  </g>
</svg>