<?xml version="1.0" encoding="UTF-8"?>
<svg id="Layer_2" data-name="Layer 2" xmlns="http://www.w3.org/2000/svg" viewBox="0 0 418.44 99.32">
  <defs>
    <style>
      .cls-1 {
        font-family: CourierNewPS-BoldMT, 'Courier New';
        font-weight: 700;
      }

      .cls-1, .cls-2 {
        font-size: 10.98px;
      }

      .cls-3 {
        letter-spacing: -.05em;
      }

      .cls-4 {
        letter-spacing: -.04em;
      }

      .cls-5 {
        fill: #231f20;
        font-family: MyriadPro-Regular, 'Myriad Pro';
        font-size: 12px;
      }

      .cls-2 {
        font-family: CourierNewPSMT, 'Courier New';
      }

      .cls-6 {
        letter-spacing: -.04em;
      }

      .cls-7 {
        fill: #f2f2f2;
      }
    </style>
  </defs>
  <g id="Layer_1-2" data-name="Layer 1">
    <rect class="cls-7" x=".48" y=".48" width="77.28" height="19.14"/>
    <rect class="cls-7" x="5.64" y="3.84" width="66.96" height="12.48"/>
    <rect class="cls-7" x="78.24" y=".48" width="69.84" height="19.14"/>
    <text class="cls-1" transform="translate(35.82 12.96)"><tspan x="0" y="0">P </tspan></text>
    <rect class="cls-7" x="83.4" y="3.84" width="60.06" height="12.48"/>
    <rect class="cls-7" x="149.58" y=".48" width="76.98" height="19.14"/>
    <text class="cls-1" transform="translate(110.1 12.96)"><tspan x="0" y="0">Q </tspan></text>
    <rect class="cls-7" x="154.26" y="3.84" width="67.14" height="12.48"/>
    <rect class="cls-7" x="227.04" y=".48" width="77.52" height="19.14"/>
    <text class="cls-1" transform="translate(171.3 12.96)"><tspan x="0" y="0">not P </tspan></text>
    <rect class="cls-7" x="232.2" y="3.84" width="67.2" height="12.48"/>
    <rect class="cls-7" x="305.04" y=".48" width="112.92" height="19.14"/>
    <text class="cls-1" transform="translate(249.3 12.96)"><tspan x="0" y="0">not Q </tspan></text>
    <rect class="cls-7" x="310.2" y="3.84" width="102.6" height="12.48"/>
    <rect width=".48" height=".48"/>
    <text class="cls-1" transform="translate(315.3 12.96)"><tspan x="0" y="0">not P or not Q </tspan></text>
    <rect width="418.44" height=".48"/>
    <rect x="417.96" width=".48" height=".48"/>
    <rect y=".48" width=".48" height="19.14"/>
    <rect x="77.76" y=".48" width=".48" height="19.14"/>
    <rect x="149.1" y=".48" width=".48" height="19.14"/>
    <rect x="148.14" y=".48" width=".48" height="19.14"/>
    <rect x="226.56" y=".48" width=".48" height="19.14"/>
    <rect x="304.56" y=".48" width=".48" height="19.14"/>
    <rect x="417.96" y=".48" width=".48" height="19.14"/>
    <text class="cls-2" transform="translate(96.89 32.88)"><tspan x="0" y="0">False</tspan></text>
    <text class="cls-2" transform="translate(22.61 32.88)"><tspan x="0" y="0">False</tspan></text>
    <rect y="19.62" width="148.14" height=".48"/>
    <rect x="149.1" y="19.62" width=".48" height=".48"/>
    <rect x="148.14" y="19.62" width=".48" height=".48"/>
    <rect x="149.58" y="19.62" width="268.86" height=".48"/>
    <rect y="20.1" width=".48" height="19.2"/>
    <rect x="77.76" y="20.1" width=".48" height="19.2"/>
    <rect x="149.1" y="20.1" width=".48" height="19.2"/>
    <rect x="148.14" y="20.1" width=".48" height="19.2"/>
    <rect x="226.56" y="20.1" width=".48" height="19.2"/>
    <rect x="304.56" y="20.1" width=".48" height="19.2"/>
    <rect x="417.96" y="20.1" width=".48" height="19.2"/>
    <text class="cls-2" transform="translate(22.62 52.56)"><tspan x="0" y="0">False</tspan></text>
    <text class="cls-2" transform="translate(100.19 52.56)"><tspan x="0" y="0">True</tspan></text>
    <rect y="39.3" width="148.14" height=".48"/>
    <rect x="149.1" y="39.3" width=".48" height=".48"/>
    <rect x="148.14" y="39.3" width=".48" height=".48"/>
    <rect x="149.58" y="39.3" width="268.86" height=".48"/>
    <rect y="39.78" width=".48" height="19.14"/>
    <rect x="77.76" y="39.78" width=".48" height="19.14"/>
    <rect x="149.1" y="39.78" width=".48" height="19.14"/>
    <rect x="148.14" y="39.78" width=".48" height="19.14"/>
    <rect x="226.56" y="39.78" width=".48" height="19.14"/>
    <rect x="304.56" y="39.78" width=".48" height="19.14"/>
    <rect x="417.96" y="39.78" width=".48" height="19.14"/>
    <text class="cls-2" transform="translate(25.92 72.18)"><tspan x="0" y="0">True</tspan></text>
    <text class="cls-2" transform="translate(96.89 72.18)"><tspan x="0" y="0">False</tspan></text>
    <rect y="58.92" width="148.14" height=".48"/>
    <rect x="149.1" y="58.92" width=".48" height=".48"/>
    <rect x="148.14" y="58.92" width=".48" height=".48"/>
    <rect x="149.58" y="58.92" width="268.86" height=".48"/>
    <rect y="59.4" width=".48" height="19.2"/>
    <rect x="77.76" y="59.4" width=".48" height="19.2"/>
    <rect x="149.1" y="59.4" width=".48" height="19.2"/>
    <rect x="148.14" y="59.4" width=".48" height="19.2"/>
    <rect x="226.56" y="59.4" width=".48" height="19.2"/>
    <rect x="304.56" y="59.4" width=".48" height="19.2"/>
    <rect x="417.96" y="59.4" width=".48" height="19.2"/>
    <text class="cls-2" transform="translate(100.2 91.86)"><tspan x="0" y="0">True</tspan></text>
    <text class="cls-2" transform="translate(25.92 91.86)"><tspan x="0" y="0">True</tspan></text>
    <rect y="78.6" width="148.14" height=".48"/>
    <rect x="149.1" y="78.6" width=".48" height=".48"/>
    <rect x="148.14" y="78.6" width=".48" height=".48"/>
    <rect x="149.58" y="78.6" width="268.86" height=".48"/>
    <rect y="79.08" width=".48" height="19.68"/>
    <rect y="98.28" width="77.76" height=".48"/>
    <rect x="77.76" y="79.08" width=".48" height="19.68"/>
    <rect x="78.24" y="98.28" width="69.9" height=".48"/>
    <rect x="149.1" y="79.08" width=".48" height="19.2"/>
    <rect x="148.14" y="79.08" width=".48" height="19.68"/>
    <rect x="148.62" y="98.28" width="77.94" height=".48"/>
    <rect x="226.56" y="79.08" width=".48" height="19.68"/>
    <rect x="227.04" y="98.28" width="77.52" height=".48"/>
    <rect x="304.56" y="79.08" width=".48" height="19.68"/>
    <rect x="305.04" y="98.28" width="112.92" height=".48"/>
    <rect x="417.96" y="79.08" width=".48" height="19.68"/>
    <rect x="417.96" y="98.28" width=".48" height=".48"/>
    <text class="cls-5" transform="translate(163.72 31.11)"><tspan class="cls-3" x="0" y="0">T</tspan><tspan x="5.42" y="0">rue</tspan></text>
    <text class="cls-5" transform="translate(241.38 32.64)"><tspan class="cls-3" x="0" y="0">T</tspan><tspan x="5.42" y="0">rue</tspan></text>
    <text class="cls-5" transform="translate(311.08 29.89)"><tspan x="0" y="0" xml:space="preserve">     </tspan><tspan class="cls-6" x="12.72" y="0"> </tspan><tspan class="cls-3" x="14.77" y="0">T</tspan><tspan x="20.2" y="0">rue</tspan></text>
    <text class="cls-5" transform="translate(161.27 51.29)"><tspan class="cls-4" x="0" y="0"> </tspan><tspan class="cls-3" x="2.05" y="0">T</tspan><tspan x="7.48" y="0">rue</tspan></text>
    <text class="cls-5" transform="translate(241.68 50.68)"><tspan class="cls-3" x="0" y="0">F</tspan><tspan x="5.3" y="0">alse</tspan></text>
    <text class="cls-5" transform="translate(326.37 50.68)"><tspan class="cls-3" x="0" y="0">T</tspan><tspan x="5.42" y="0">rue</tspan></text>
    <text class="cls-5" transform="translate(163.72 70.55)"><tspan class="cls-3" x="0" y="0">F</tspan><tspan x="5.3" y="0">alse</tspan></text>
    <text class="cls-5" transform="translate(241.99 70.24)"><tspan class="cls-3" x="0" y="0">T</tspan><tspan x="5.42" y="0">rue</tspan></text>
    <text class="cls-5" transform="translate(325.15 69.63)"><tspan class="cls-3" x="0" y="0">T</tspan><tspan x="5.42" y="0">rue</tspan></text>
    <text class="cls-5" transform="translate(164.02 89.81)"><tspan class="cls-3" x="0" y="0">F</tspan><tspan x="5.3" y="0">alse</tspan></text>
    <text class="cls-5" transform="translate(241.68 89.5)"><tspan class="cls-3" x="0" y="0">F</tspan><tspan x="5.3" y="0">alse</tspan></text>
    <text class="cls-5" transform="translate(325.15 88.89)"><tspan class="cls-3" x="0" y="0">F</tspan><tspan x="5.3" y="0">alse</tspan></text>
  </g>
</svg>